<mxfile host="app.diagrams.net" agent="Mozilla/5.0 (Windows NT 10.0; Win64; x64) AppleWebKit/537.36 (KHTML, like Gecko) Chrome/140.0.0.0 Safari/537.36 Edg/140.0.0.0" version="28.2.3">
  <diagram name="Página-1" id="nig3bJucZ8JaSCZiiUbg">
    <mxGraphModel dx="1418" dy="786" grid="1" gridSize="10" guides="1" tooltips="1" connect="1" arrows="1" fold="1" page="1" pageScale="1" pageWidth="827" pageHeight="1169" math="0" shadow="0">
      <root>
        <mxCell id="0" />
        <mxCell id="1" parent="0" />
        <mxCell id="FwYA-FrC4Y-4crLvWzGT-3" value="" style="edgeStyle=orthogonalEdgeStyle;rounded=0;orthogonalLoop=1;jettySize=auto;html=1;" edge="1" parent="1" source="FwYA-FrC4Y-4crLvWzGT-1" target="FwYA-FrC4Y-4crLvWzGT-2">
          <mxGeometry relative="1" as="geometry" />
        </mxCell>
        <mxCell id="FwYA-FrC4Y-4crLvWzGT-1" value="Início" style="ellipse;whiteSpace=wrap;html=1;aspect=fixed;fillColor=#1ba1e2;fontColor=#ffffff;strokeColor=#006EAF;" vertex="1" parent="1">
          <mxGeometry x="360" y="350" width="80" height="80" as="geometry" />
        </mxCell>
        <mxCell id="FwYA-FrC4Y-4crLvWzGT-12" value="" style="edgeStyle=orthogonalEdgeStyle;rounded=0;orthogonalLoop=1;jettySize=auto;html=1;" edge="1" parent="1" source="FwYA-FrC4Y-4crLvWzGT-2" target="FwYA-FrC4Y-4crLvWzGT-9">
          <mxGeometry relative="1" as="geometry" />
        </mxCell>
        <mxCell id="FwYA-FrC4Y-4crLvWzGT-2" value="Ler P1 P2 P3 P4" style="shape=parallelogram;perimeter=parallelogramPerimeter;whiteSpace=wrap;html=1;fixedSize=1;fillColor=#e3c800;fontColor=#000000;strokeColor=#B09500;" vertex="1" parent="1">
          <mxGeometry x="170" y="460" width="170" height="60" as="geometry" />
        </mxCell>
        <mxCell id="FwYA-FrC4Y-4crLvWzGT-14" value="" style="edgeStyle=orthogonalEdgeStyle;rounded=0;orthogonalLoop=1;jettySize=auto;html=1;" edge="1" parent="1" source="FwYA-FrC4Y-4crLvWzGT-9" target="FwYA-FrC4Y-4crLvWzGT-13">
          <mxGeometry relative="1" as="geometry" />
        </mxCell>
        <mxCell id="FwYA-FrC4Y-4crLvWzGT-9" value="Média= (P1+P2+P3+P4)/4" style="rounded=0;whiteSpace=wrap;html=1;fillColor=#647687;fontColor=#ffffff;strokeColor=#314354;" vertex="1" parent="1">
          <mxGeometry x="430" y="460" width="120" height="60" as="geometry" />
        </mxCell>
        <mxCell id="FwYA-FrC4Y-4crLvWzGT-16" value="" style="edgeStyle=orthogonalEdgeStyle;rounded=0;orthogonalLoop=1;jettySize=auto;html=1;" edge="1" parent="1" source="FwYA-FrC4Y-4crLvWzGT-13" target="FwYA-FrC4Y-4crLvWzGT-15">
          <mxGeometry relative="1" as="geometry" />
        </mxCell>
        <mxCell id="FwYA-FrC4Y-4crLvWzGT-13" value="Escrever média" style="shape=parallelogram;perimeter=parallelogramPerimeter;whiteSpace=wrap;html=1;fixedSize=1;fillColor=#e3c800;fontColor=#000000;strokeColor=#B09500;" vertex="1" parent="1">
          <mxGeometry x="405" y="580" width="170" height="60" as="geometry" />
        </mxCell>
        <mxCell id="FwYA-FrC4Y-4crLvWzGT-15" value="Fim" style="ellipse;whiteSpace=wrap;html=1;fillColor=#e51400;fontColor=#ffffff;strokeColor=#B20000;" vertex="1" parent="1">
          <mxGeometry x="180" y="570" width="120" height="80" as="geometry" />
        </mxCell>
      </root>
    </mxGraphModel>
  </diagram>
</mxfile>
